<svg width="360" height="283" viewBox="0 0 360 283" fill="none" xmlns="http://www.w3.org/2000/svg">
<g clip-path="url(#clip0)">
<path opacity="0.1" d="M126.276 276.718C160.956 276.718 189.07 271.392 189.07 264.822C189.07 258.253 160.956 252.927 126.276 252.927C91.5957 252.927 63.482 258.253 63.482 264.822C63.482 271.392 91.5957 276.718 126.276 276.718Z" fill="#21919D"/>
<path opacity="0.1" d="M209.151 40.2243C186.073 39.4256 164.093 31.973 143.105 23.8216C122.117 15.6702 101.328 6.64156 78.8028 2.32337C64.3149 -0.454395 47.7446 -0.8502 36.0737 6.90899C24.8379 14.3972 21.2079 27.2876 19.2574 39.258C17.7883 48.2652 16.9253 57.7467 20.9476 66.1798C23.7432 72.0348 28.6996 76.9557 32.1299 82.5647C44.0647 102.077 35.628 126.139 22.6984 145.191C16.6365 154.127 9.59406 162.663 4.91215 172.166C0.230252 181.669 -1.93419 192.595 2.16292 202.315C6.2208 211.943 15.8948 219.16 26.3747 224.241C47.659 234.564 72.7302 237.517 97.1952 239.193C151.335 242.894 205.76 241.293 260.042 239.685C280.132 239.093 300.307 238.49 320.069 235.384C331.044 233.658 342.373 230.92 350.342 224.309C360.455 215.919 362.962 201.712 356.183 191.193C344.815 173.543 313.394 169.16 305.438 150.222C301.067 139.796 305.556 128.186 311.914 118.519C325.549 97.7764 348.403 79.5801 349.604 55.8746C350.432 39.5932 339.445 23.2867 322.458 15.581C304.654 7.50448 279.961 8.52074 266.831 21.8889C253.299 35.6387 229.529 40.9339 209.151 40.2243Z" fill="#21919D"/>
<path d="M190.813 129.489L179.891 122.126L185.4 113.925L156.553 111.625L146.187 119.641L133.211 112.366L122.389 113.668L122.261 110.815C122.127 107.841 121.828 104.877 121.366 101.936C121.412 101.045 121.444 100.022 121.44 98.9091C121.44 94.2201 120.806 88.0049 118.017 83.8614L118.659 78.0919L113.453 71.9409C114.289 70.2755 115.242 68.6717 116.306 67.1413C116.484 66.8846 116.662 66.635 116.855 66.3925C123.612 65.904 128.943 60.3485 128.943 53.5556C128.943 53.2418 128.943 52.9281 128.907 52.6178C128.907 52.493 128.882 52.3647 128.868 52.2399C129.528 52.5964 130.195 52.953 130.861 53.3096C130.986 53.4879 131.129 53.6662 131.286 53.8766L131.318 53.9158L131.517 54.1618L131.582 54.2367C131.653 54.3223 131.728 54.4043 131.803 54.4899L131.853 54.5469C132.042 54.7573 132.241 54.9713 132.455 55.1816C132.481 55.2024 132.505 55.225 132.527 55.2494L132.794 55.499L132.869 55.5667C133.097 55.77 133.34 55.9661 133.582 56.1515L133.66 56.2086L133.967 56.419L134.067 56.4832C134.185 56.5545 134.306 56.6294 134.424 56.6971L134.466 56.7221C134.605 56.7969 134.748 56.8683 134.891 56.936L134.962 56.9645C135.083 57.0168 135.202 57.0668 135.319 57.1143L135.429 57.1535C135.554 57.1963 135.675 57.2355 135.804 57.2712L135.882 57.2926C136.039 57.3318 136.196 57.3639 136.356 57.3889H136.374C136.525 57.4133 136.678 57.4288 136.83 57.4352H136.934C137.07 57.4424 137.207 57.4424 137.344 57.4352H137.433C137.604 57.4254 137.774 57.4051 137.943 57.3746C138.741 57.2697 139.507 56.9949 140.189 56.5687C140.363 56.4525 140.517 56.3093 140.646 56.1444C141.359 55.2102 140.575 54.1868 140.575 54.1868C140.296 53.5235 138.492 53.0564 138.492 53.0564C138.492 53.0564 132.787 50.6745 132.787 48.7775C132.787 46.8804 131.361 37.0388 116.637 34.7888C116.637 34.7888 107.06 34.2504 104.367 39.378L104.31 39.9771C103.519 40.4727 102.863 41.4676 102.082 41.76C101.744 41.8324 101.419 41.9525 101.115 42.1165V42.0488C101.025 42.1276 100.951 42.2233 100.898 42.3305C100.73 42.6642 100.63 43.0277 100.602 43.4002C100.522 43.8553 100.364 44.2931 100.135 44.6946C100.071 44.8087 99.9995 44.9183 99.9208 45.0227V45.0227L99.8602 45.1189C100.274 45.1512 100.69 45.084 101.073 44.9228C101.012 45.411 100.893 45.89 100.716 46.3491C100.943 46.3565 101.167 46.2985 101.361 46.1822C101.556 46.0659 101.713 45.8961 101.814 45.693V45.6645L101.861 45.6003C101.95 45.4353 102.024 45.2621 102.082 45.0833L102.042 45.1261C102.114 44.8943 102.178 44.6589 102.256 44.4307C102.292 44.3022 102.352 44.1813 102.431 44.0742C102.526 43.9782 102.643 43.906 102.771 43.8632C102.899 43.8205 103.036 43.8085 103.169 43.8281L103.023 46.9197H103.087C103.001 47.1446 102.896 47.3617 102.773 47.5686C102.267 48.3888 101.347 48.9486 101.008 49.8472C100.862 50.2806 100.807 50.7393 100.844 51.1951C100.844 51.4625 100.876 51.7335 100.898 52.0009V51.9795C100.948 52.6927 100.962 53.3702 100.577 53.9443C100.313 54.3365 99.8887 54.6325 99.7425 55.0782C99.7021 55.2024 99.684 55.3328 99.6891 55.4633C99.7177 55.8541 99.7992 56.2392 99.9315 56.608C99.9331 56.6009 99.9331 56.5936 99.9315 56.5866C100.02 56.8579 100.041 57.1469 99.9921 57.4281C99.8317 58.1413 98.9652 58.7367 99.008 59.4178C99.0055 59.5074 99.0188 59.5967 99.0472 59.6817C99.2139 60.0143 99.5026 60.2698 99.8531 60.3948C100.403 60.7075 101.034 60.8467 101.665 60.7942C101.901 60.7515 102.129 60.6734 102.342 60.5624C102.092 61.1365 101.836 61.7035 101.575 62.2419C101.536 62.3275 101.493 62.4131 101.451 62.4987C101.451 62.4987 99.2469 61.026 97.9953 64.0284C97.6299 64.6523 97.3686 65.3316 97.2215 66.0395C97.1588 66.3227 97.0705 66.5996 96.9577 66.8668C96.402 67.8075 95.5704 68.5544 94.5757 69.0063C92.0226 70.1758 81.7103 83.0377 81.5284 86.3682C81.4392 87.6682 81.2194 88.956 80.8723 90.2121C80.0605 93.1701 79.8519 96.2611 80.259 99.3013C80.3864 100.284 80.5975 101.254 80.8901 102.2C81.9848 105.527 82.7158 111.735 82.7158 111.735L83.8997 122.511C83.8557 123.998 83.9201 125.487 84.0922 126.965C82.8834 128.345 78.0304 134.096 79.8846 135.662C81.3109 136.896 83.807 136.692 85.2083 136.439C84.028 139.36 82.1703 144.437 81.9242 147.925C81.5676 153.084 82.534 159.92 84.0637 162.544C85.5934 165.169 90.6925 171.901 90.6925 171.901C90.6925 171.901 90.4536 181.137 92.2758 184.492C94.0979 187.847 94.8324 194.808 94.8324 194.808C94.8324 194.808 96.5333 200.684 95.6811 202.845C94.8289 205.006 97.2607 206.803 94.7076 208.24C92.1545 209.677 88.8882 242.065 88.8882 242.065C88.8882 242.065 87.5725 263.293 88.8882 264.373C88.9586 264.424 89.0339 264.468 89.1129 264.505V271.637C89.1129 271.637 88.2 273.134 91.912 273.437C94.4545 273.641 101.661 274.101 105.936 274.368L109.249 274.575C109.249 274.575 117.094 276.137 120.56 274.575C124.026 273.013 130.17 273.049 129.257 268.923C129.136 268.362 128.974 267.81 128.772 267.272C127.77 264.712 126.069 264.419 122.935 263.706C122.753 263.667 122.578 263.631 122.418 263.603C119.116 263.029 118.032 264.566 116.181 262.565C114.573 260.836 109.452 258.9 107.709 258.286C107.751 258.158 107.805 258.033 107.848 257.901C107.354 257.817 106.895 257.593 106.525 257.256L111.249 257.555L114.063 257.73C114.063 257.73 120.731 259.06 123.69 257.73C126.65 256.4 131.856 256.436 131.079 252.93C130.976 252.453 130.839 251.983 130.669 251.526C129.817 249.35 128.369 249.111 125.705 248.509C125.552 248.477 125.409 248.445 125.267 248.42C122.46 247.931 121.54 249.236 119.968 247.539C118.62 246.091 114.366 244.469 112.836 243.916C112.836 243.124 111.766 241.998 111.093 240.867C110.301 239.548 111.763 234.93 111.763 234.93L112.597 215.771C112.915 215.63 113.251 215.534 113.596 215.486C113.596 215.486 117.368 211.885 116.516 208.048C116.342 206.887 116.252 205.716 116.245 204.543C117.486 203.391 119.194 201.69 119.679 200.642C120.471 198.933 119.679 190.657 119.679 190.657V159.011L125.99 159.649L131.717 160.237L133.461 160.416L139.187 160.993L152.349 162.323L164.209 160.077L169.34 159.107L179.891 157.11V131.294L190.813 129.489ZM103.947 43.9422L103.212 43.8638C103.455 43.8745 103.711 43.9208 103.947 43.9422Z" fill="url(#paint0_linear)"/>
<path d="M165.215 146.252C161.649 151.355 148.83 148.652 148.83 148.652L138.895 139.356L137.558 138.097L139.801 133.333C139.801 133.333 140.514 133.529 141.737 133.879C148.159 135.744 168.224 141.963 165.215 146.252Z" fill="#EFB7B9"/>
<path opacity="0.1" d="M141.73 133.879C141.292 135.405 140.09 137.691 138.895 139.356L137.558 138.097L139.801 133.333C139.801 133.333 140.521 133.529 141.73 133.879Z" fill="black"/>
<path d="M107.659 80.1565C107.659 80.1565 98.5017 84.218 98.9509 94.1915C99.2742 100.617 99.9743 107.018 101.048 113.361C101.048 113.361 99.1756 128.37 106.97 132.239C114.765 136.108 121.979 139.288 121.979 139.288C121.979 139.288 134.174 140.6 135.689 141.142C137.205 141.684 141.94 133.398 141.067 132.107C140.193 130.816 129 128.109 127.574 125.956C126.147 123.802 122.849 122.472 122.849 122.472C122.849 122.472 119.444 120.411 119.212 118.55C118.98 116.688 119.879 115.301 120.107 114.485C120.335 113.668 120.913 105.784 120.913 105.784C120.913 105.784 124.757 77.7211 107.659 80.1565Z" fill="#DCE6F2"/>
<path opacity="0.1" d="M113.703 112.951C113.703 112.951 101.141 115.055 102.356 119.452C102.356 119.452 106.917 114.706 113.703 112.951Z" fill="black"/>
<path opacity="0.1" d="M113.799 114.731C113.799 114.731 106.892 120.368 108.244 120.657C109.595 120.946 113.799 114.731 113.799 114.731Z" fill="black"/>
<path opacity="0.1" d="M117.119 116.695C117.119 116.695 115.268 120.486 116.406 120.229C117.543 119.972 117.119 116.695 117.119 116.695Z" fill="black"/>
<path opacity="0.1" d="M142.193 134.282L141.43 134.064C141.648 133.351 141.709 132.773 141.53 132.506C140.657 131.215 129.471 128.512 128.048 126.355C126.625 124.198 123.323 122.871 123.323 122.871C123.323 122.871 119.918 120.81 119.686 118.949C119.454 117.088 120.353 115.7 120.581 114.884C120.809 114.067 121.387 106.18 121.387 106.18C121.387 106.18 125.22 78.1204 108.122 80.5558C108.122 80.5558 98.9652 84.6209 99.4109 94.5944C99.7343 101.02 100.436 107.421 101.511 113.764C101.511 113.764 99.6391 128.773 107.434 132.642C115.229 136.51 122.442 139.691 122.442 139.691C122.442 139.691 134.634 141 136.153 141.545C136.727 141.752 137.765 140.686 138.781 139.22L139.359 139.759L149.293 149.051C149.293 149.051 162.112 151.758 165.678 146.655C168.691 142.362 148.63 136.143 142.193 134.282Z" fill="black"/>
<path d="M102.388 42.7227C102.039 42.7909 101.705 42.9201 101.401 43.1042C101.044 43.4002 101.044 43.9065 100.955 44.3487C100.85 44.9638 100.606 45.5468 100.242 46.0531C100.648 46.0829 101.055 46.0157 101.429 45.857C101.368 46.3451 101.248 46.824 101.073 47.2833C101.295 47.289 101.514 47.2304 101.704 47.1147C101.893 46.999 102.046 46.8309 102.142 46.6308C102.331 46.229 102.48 45.8098 102.588 45.3792C102.622 45.2504 102.68 45.1293 102.759 45.0226C103.087 44.634 103.697 44.8087 104.203 44.8586C104.625 44.8941 105.048 44.8163 105.429 44.6332C105.81 44.4502 106.136 44.1685 106.371 43.8174C106.91 43.0008 106.942 40.9113 105.658 40.6902C104.318 40.4691 103.483 42.3162 102.388 42.7227Z" fill="#965D7B"/>
<g opacity="0.1">
<path opacity="0.1" d="M101.365 43.5428C101.397 43.3681 101.419 43.1862 101.458 43.0115C101.119 43.3074 101.101 43.8102 101.012 44.2559C100.967 44.5131 100.897 44.7652 100.802 45.0083C101.083 44.5608 101.274 44.0631 101.365 43.5428V43.5428Z" fill="black"/>
<path opacity="0.1" d="M101.479 46.4881C101.657 46.0293 101.777 45.5502 101.836 45.0618C101.479 45.212 101.092 45.2791 100.706 45.2579C100.593 45.5087 100.456 45.7476 100.295 45.9711C100.7 46.0023 101.106 45.9363 101.479 45.7785C101.42 46.2669 101.3 46.746 101.123 47.2048C101.345 47.21 101.564 47.1513 101.753 47.0356C101.943 46.9199 102.095 46.7521 102.192 46.5523C102.281 46.3902 102.353 46.2193 102.406 46.0424C102.302 46.1886 102.162 46.3061 102 46.384C101.838 46.4619 101.659 46.4977 101.479 46.4881V46.4881Z" fill="black"/>
<path opacity="0.1" d="M104.61 44.0634C104.104 44.0135 103.49 43.8388 103.162 44.2275C103.084 44.335 103.026 44.4558 102.991 44.584C102.959 44.6768 102.931 44.773 102.906 44.8693C103.244 44.6019 103.794 44.7445 104.254 44.7909C104.675 44.8253 105.098 44.747 105.479 44.564C105.86 44.381 106.185 44.0999 106.422 43.7497C106.53 43.5765 106.61 43.3877 106.66 43.1898C106.416 43.4921 106.102 43.7298 105.744 43.8821C105.387 44.0344 104.997 44.0967 104.61 44.0634Z" fill="black"/>
</g>
<path d="M113.122 72.1726L118.559 78.7123L117.85 85.3126L111.278 75.0252L113.122 72.1726Z" fill="#DCE6F2"/>
<path opacity="0.1" d="M118.556 78.7123L117.889 84.9204L117.846 85.3126L111.916 76.0272L111.278 75.0252L111.463 74.7364L113.118 72.1726L113.485 72.6148L118.556 78.7123Z" fill="black"/>
<path d="M121.38 63.3188C119.54 63.8466 117.782 65.658 116.252 67.8581C115.218 69.3761 114.294 70.9657 113.485 72.6149C112.983 73.6204 112.54 74.5868 112.173 75.4283L111.916 76.0274C111.296 77.4929 110.95 78.4735 110.95 78.4735C110.95 78.4735 96.8651 67.8831 99.0937 67.1699C99.8425 66.931 100.827 65.3264 101.8 63.3046L101.921 63.0478C102.538 61.7499 103.144 60.3022 103.683 58.94C104.785 56.1409 105.601 53.709 105.601 53.709C105.601 53.709 126.996 61.7142 121.38 63.3188Z" fill="#EFB7B9"/>
<path d="M129.806 53.1134C129.806 53.1134 133.058 58.997 137.426 58.1947C141.794 57.3924 139.997 55.0354 139.997 55.0354L129.806 53.1134Z" fill="#444053"/>
<path d="M123.505 256.774C120.624 258.09 114.109 256.774 114.109 256.774L111.363 256.603C107.798 256.375 101.829 255.99 99.7176 255.819C96.6367 255.566 97.3926 254.303 97.3926 254.303V246.676L112.341 242.889C112.341 242.889 118.249 244.911 119.868 246.676C121.405 248.359 122.303 247.065 125.045 247.55C125.181 247.575 125.324 247.603 125.473 247.639C128.076 248.234 129.488 248.47 130.323 250.627C130.491 251.08 130.625 251.545 130.726 252.018C131.496 255.491 126.383 255.466 123.505 256.774Z" fill="#A36468"/>
<path opacity="0.1" d="M130.323 250.627C129.787 250.962 129.224 251.25 128.64 251.49C126.679 252.385 124.814 253.476 122.831 254.321C120.849 255.166 118.713 255.769 116.566 255.608C115.443 255.526 114.295 255.252 113.221 255.573C112.557 255.829 111.932 256.176 111.363 256.603C107.798 256.375 101.829 255.99 99.7176 255.819C96.6367 255.566 97.3926 254.303 97.3926 254.303V253.412C97.5032 253.412 97.628 253.38 97.7706 253.369C98.5086 253.357 99.2434 253.467 99.9458 253.693C101.493 254.114 103.034 254.528 104.581 254.942C104.709 254.461 104.932 254.012 105.239 253.621C105.545 253.23 105.928 252.905 106.364 252.667C107.248 252.198 108.239 251.97 109.238 252.007C111.638 252.039 113.909 253.176 116.306 253.291C116.976 253.352 117.65 253.239 118.263 252.962C118.591 252.798 118.88 252.56 119.201 252.378C119.715 252.129 120.257 251.946 120.816 251.832C122.388 251.441 123.931 250.943 125.434 250.342C125.862 250.174 126.361 249.871 126.304 249.414C126.229 248.808 125.277 248.737 125.028 248.181C124.984 248.08 124.963 247.971 124.968 247.862C124.973 247.752 125.003 247.646 125.056 247.55C125.192 247.575 125.334 247.603 125.484 247.639C128.076 248.234 129.488 248.47 130.323 250.627Z" fill="black"/>
<path d="M120.46 273.462C117.073 275.01 109.406 273.462 109.406 273.462L106.179 273.273C102 273.006 94.961 272.56 92.4756 272.35C88.8492 272.05 89.7406 270.567 89.7406 270.567V261.578L107.331 257.12C107.331 257.12 114.284 259.499 116.188 261.578C117.996 263.557 119.041 262.034 122.282 262.604C122.443 262.633 122.61 262.669 122.785 262.708C125.848 263.421 127.51 263.688 128.49 266.227C128.689 266.76 128.847 267.307 128.964 267.864C129.849 271.95 123.848 271.918 120.46 273.462Z" fill="#A36468"/>
<path opacity="0.1" d="M128.483 266.227C127.853 266.621 127.191 266.961 126.504 267.244C124.197 268.296 122 269.579 119.668 270.574C117.336 271.569 114.823 272.275 112.294 272.089C110.975 271.993 109.624 271.662 108.372 272.047C107.588 272.352 106.85 272.765 106.179 273.273C102 273.006 94.961 272.56 92.4756 272.35C88.8492 272.05 89.7406 270.567 89.7406 270.567V269.519C89.8883 269.494 90.037 269.478 90.1864 269.469C91.055 269.453 91.9203 269.582 92.7466 269.85L98.1987 271.319C98.3506 270.753 98.6165 270.223 98.98 269.762C99.3436 269.302 99.7972 268.921 100.313 268.641C101.353 268.087 102.52 267.819 103.697 267.864C106.521 267.903 109.192 269.24 112.013 269.376C112.798 269.448 113.589 269.316 114.309 268.994C114.698 268.798 115.022 268.517 115.414 268.306C116.018 268.011 116.656 267.795 117.315 267.664C119.154 267.2 120.96 266.614 122.721 265.91C123.224 265.71 123.812 265.354 123.744 264.819C123.655 264.106 122.535 264.02 122.239 263.364C122.19 263.246 122.167 263.117 122.173 262.989C122.179 262.861 122.214 262.735 122.275 262.622C122.436 262.651 122.603 262.686 122.778 262.726C125.841 263.41 127.503 263.688 128.483 266.227Z" fill="black"/>
<path d="M112.794 211.777L111.841 234.181C111.841 234.181 110.415 238.756 111.189 240.065C111.963 241.374 113.268 242.679 112.794 243.453C112.319 244.226 106.614 252.592 104.77 249.382C102.927 246.173 101.108 232.267 101.108 232.267L102.809 215.09L112.794 211.777Z" fill="#444053"/>
<path d="M116.923 155.958L119.568 159.496V190.261C119.568 190.261 120.342 198.463 119.568 200.157C118.795 201.85 114.872 205.238 114.872 205.238L111.574 188.3L112.287 170.382L116.923 155.958Z" fill="#444053"/>
<path opacity="0.1" d="M112.794 211.777L111.841 234.181C111.841 234.181 110.415 238.756 111.189 240.065C111.963 241.374 113.268 242.679 112.794 243.453C112.319 244.226 106.614 252.592 104.77 249.382C102.927 246.173 101.108 232.267 101.108 232.267L102.809 215.09L112.794 211.777Z" fill="black"/>
<path opacity="0.1" d="M116.923 155.958L119.568 159.496V190.261C119.568 190.261 120.342 198.463 119.568 200.157C118.795 201.85 114.872 205.238 114.872 205.238L111.574 188.3L112.287 170.382L116.923 155.958Z" fill="black"/>
<path d="M119.568 142.836V159.478L116.598 172.432C116.598 172.432 115.646 203.694 116.477 207.495C117.308 211.296 113.624 214.866 113.624 214.866C113.624 214.866 111.485 215.104 111.485 216.766C111.485 218.428 107.919 223.185 107.919 223.185L108.037 232.456C108.037 232.456 109.584 249.81 107.206 253.137C104.827 256.464 108.037 256.942 108.037 256.942C105.066 266.687 90.8031 264.43 89.5158 263.36C88.2286 262.291 89.5158 241.252 89.5158 241.252C89.5158 241.252 92.7037 209.16 95.1997 207.734C97.6958 206.308 95.321 204.525 96.1518 202.385C96.9826 200.246 95.321 194.423 95.321 194.423C95.321 194.423 94.6078 187.526 92.8249 184.2C91.042 180.873 91.2774 171.719 91.2774 171.719C91.2774 171.719 86.2852 165.062 84.8019 162.448C83.3185 159.834 82.3628 153.059 82.7194 147.946C82.9619 144.491 84.7769 139.459 85.9286 136.564C86.4813 135.177 86.8807 134.278 86.8807 134.278L87.2195 134.367L106.696 139.467L119.568 142.836Z" fill="#444053"/>
<path opacity="0.1" d="M121.38 63.3188C119.54 63.8465 117.782 65.6579 116.252 67.858H115.853C113.611 67.8596 111.408 67.2693 109.467 66.1466C107.526 65.024 105.916 63.4089 104.799 61.4646C104.332 60.6589 103.957 59.8038 103.679 58.915C104.781 56.1158 105.598 53.684 105.598 53.684C105.598 53.684 126.996 61.7142 121.38 63.3188Z" fill="black"/>
<path d="M128.601 54.4043C128.604 56.3554 128.159 58.2811 127.301 60.0333C126.442 61.7854 125.193 63.3171 123.65 64.5104C122.106 65.7037 120.309 66.5268 118.397 66.9162C116.486 67.3056 114.51 67.251 112.622 66.7566C110.735 66.2622 108.986 65.3411 107.511 64.0644C106.036 62.7877 104.873 61.1893 104.113 59.3925C103.353 57.5956 103.015 55.6483 103.126 53.7003C103.237 51.7524 103.793 49.856 104.752 48.157C105.139 47.4667 105.59 46.8148 106.1 46.2101C106.941 45.2083 107.93 44.3402 109.031 43.6356C110.893 42.4529 113.029 41.7732 115.231 41.6629C117.434 41.5527 119.627 42.0156 121.597 43.0065C123.567 43.9975 125.246 45.4825 126.471 47.3165C127.695 49.1505 128.423 51.2707 128.583 53.4701C128.59 53.7839 128.601 54.0941 128.601 54.4043Z" fill="#EFB7B9"/>
<path opacity="0.1" d="M117.889 84.9204L117.846 85.3126L111.916 76.0415C111.296 77.5071 110.95 78.4877 110.95 78.4877C110.95 78.4877 96.8651 67.883 99.0937 67.1698C99.8425 66.9309 100.827 65.3263 101.8 63.3045L101.921 63.0477C102.955 66.1286 108.964 72.2867 111.463 74.7543C111.752 75.0395 111.991 75.2749 112.177 75.446L112.558 75.8026L112.758 76.0023C113.667 76.9401 117.504 81.0764 117.889 84.9204Z" fill="black"/>
<path d="M122.321 116.378L121.673 137.263L121.558 140.982C121.558 140.982 113.871 140.269 106.696 139.484C100.92 138.853 95.4745 138.172 94.6366 137.773C93.5668 137.27 91.274 136.881 89.4662 136.635C88.0684 136.446 86.9701 136.346 86.9701 136.346C86.9701 136.346 86.56 136.468 85.9289 136.582C84.5525 136.831 82.1349 137.035 80.7264 135.812C78.9256 134.246 83.6575 128.559 84.8377 127.193L85.0981 126.897L84.6523 122.779L83.4934 112.099C83.4934 112.099 82.7803 105.948 81.7105 102.65C81.4245 101.712 81.2182 100.752 81.0936 99.7792C80.6962 96.7667 80.8998 93.7053 81.6927 90.7719C82.0315 89.5255 82.2465 88.2487 82.3346 86.9601C82.5128 83.6617 92.5862 70.914 95.0823 69.7551C96.2051 69.2315 97.1087 68.3305 97.6354 67.2091C97.8093 66.8565 97.9398 66.4841 98.0241 66.1001C99.0938 61.4646 101.8 63.3046 101.8 63.3046C102.453 66.931 112.555 76.5301 112.555 76.5301L112.754 76.7298C113.756 77.7568 118.221 82.5777 117.903 86.6927C117.84 88.2242 118.069 89.7538 118.577 91.1998C120.632 97.6699 121.813 104.385 122.09 111.168L122.321 116.378Z" fill="#DCE6F2"/>
<path opacity="0.1" d="M108.008 91.5778C108.008 91.5778 105.512 97.6396 103.64 98.6202C101.768 99.6008 108.9 100.688 108.008 91.5778Z" fill="black"/>
<path opacity="0.1" d="M109.88 102.899C109.88 102.899 104.175 103.612 104.175 104.682C104.175 105.752 109.88 102.899 109.88 102.899Z" fill="black"/>
<path opacity="0.1" d="M115.853 109.853C115.853 109.853 107.562 127.503 105.245 128.038C102.927 128.573 115.853 109.853 115.853 109.853Z" fill="black"/>
<path opacity="0.1" d="M112.398 77.4251L105.541 80.4061L97.2647 67.9044C97.4386 67.5518 97.5691 67.1795 97.6534 66.7955C98.7231 62.1599 101.43 63.9999 101.43 63.9999C102.082 67.6263 112.184 77.2254 112.184 77.2254L112.398 77.4251Z" fill="black"/>
<path d="M112.754 76.712L105.897 79.693L97.6211 67.1913C97.795 66.8387 97.9255 66.4663 98.0098 66.0823C99.0795 61.4468 101.786 63.2867 101.786 63.2867C102.438 66.9132 112.54 76.5123 112.54 76.5123L112.754 76.712Z" fill="#DCE6F2"/>
<path opacity="0.1" d="M121.558 140.982C121.558 140.982 113.87 140.269 106.696 139.484L119.569 142.854V146.776C119.005 147.286 118.517 147.55 118.199 147.415C116.716 146.791 104.61 144.829 104.61 144.829C104.61 144.829 97.5783 141.264 89.9903 136.985C89.8061 136.883 89.6275 136.771 89.4554 136.65C88.5706 136.049 87.8082 135.285 87.2089 134.4C85.8076 132.371 85.1229 129.764 84.827 127.207C84.6606 125.742 84.5986 124.267 84.6416 122.793C84.6783 121.121 84.8308 119.455 85.098 117.804C84.3641 111.412 84.0069 104.983 84.0282 98.5489C84.1174 88.5646 93.4776 84.9988 93.4776 84.9988C110.683 83.4834 105.348 111.297 105.348 111.297C105.348 111.297 104.353 119.141 104.082 119.944C103.811 120.746 102.838 122.083 102.97 123.955C103.102 125.827 106.389 128.067 106.389 128.067C106.389 128.067 109.599 129.571 110.922 131.8C111.884 133.444 118.139 135.672 121.672 137.263L121.558 140.982Z" fill="black"/>
<path opacity="0.1" d="M127.321 46.4881C127.327 47.0755 127.206 47.6571 126.964 48.1926C126.781 48.6295 126.569 49.0536 126.329 49.462C125.954 50.2133 125.421 50.8749 124.768 51.4018C123.944 51.9902 122.903 52.1542 121.915 52.3931C120.927 52.632 119.9 53.0136 119.337 53.8551C119.032 54.3961 118.827 54.9881 118.734 55.6023C118.64 56.216 118.395 56.7967 118.021 57.2925C117.827 57.5346 117.557 57.7052 117.255 57.7775C116.953 57.8498 116.635 57.8197 116.352 57.6919C116.054 57.4908 115.828 57.1997 115.707 56.8611C115.3 55.9447 115.197 54.9284 115.033 53.9407C114.869 52.9529 114.637 51.9367 114.031 51.1415C113.425 50.3463 112.352 49.8222 111.399 50.1324C111.081 50.2551 110.79 50.4408 110.545 50.6786C110.3 50.9163 110.105 51.2011 109.973 51.5159C109.71 52.1461 109.529 52.8077 109.435 53.4842C108.993 55.9042 108.471 58.31 107.869 60.7014C107.851 60.7995 107.811 60.8921 107.752 60.9724C107.657 61.0669 107.529 61.1207 107.395 61.1222C106.596 61.2292 105.83 60.6693 105.024 60.73C104.941 60.7355 104.858 60.7486 104.778 60.7692C103.475 58.5048 102.899 55.8945 103.13 53.2922C103.36 50.6898 104.385 48.2212 106.065 46.2207L106.129 46.2029C106.665 46.0126 107.152 45.7057 107.555 45.3043C108.07 44.7892 108.547 44.2374 108.982 43.6533L109.267 43.2967C110.087 42.3093 111.02 41.4224 112.048 40.6545C112.329 40.4246 112.651 40.2503 112.997 40.141C113.293 40.0833 113.596 40.0737 113.895 40.1125C115.127 40.2603 116.368 40.3068 117.607 40.2515C118.471 40.1158 119.341 40.0277 120.214 39.9877C122.471 40.0519 124.397 41.6458 125.823 43.393C126.59 44.288 127.274 45.3185 127.321 46.4881Z" fill="black"/>
<path d="M103.087 48.4957C102.592 49.3087 101.697 49.8614 101.362 50.7529C100.869 52.0473 101.7 53.659 100.937 54.8143C100.684 55.203 100.267 55.4918 100.124 55.9376C99.8818 56.69 100.545 57.4923 100.374 58.266C100.203 59.0398 99.1829 59.6924 99.4539 60.4483C99.614 60.778 99.8949 61.0334 100.238 61.1615C100.779 61.4714 101.401 61.6095 102.021 61.5573C102.995 61.3968 103.719 60.4412 104.706 60.3699C105.509 60.3128 106.275 60.8691 107.074 60.7657C107.208 60.761 107.335 60.7063 107.431 60.6123C107.491 60.5329 107.532 60.4399 107.548 60.3413C108.147 57.9523 108.67 55.5465 109.117 53.1242C109.208 52.4474 109.388 51.7856 109.652 51.1558C109.785 50.8417 109.98 50.5574 110.225 50.3198C110.47 50.0822 110.76 49.896 111.078 49.7723C112.03 49.4656 113.1 49.9862 113.71 50.7814C114.32 51.5766 114.551 52.5928 114.716 53.5806C114.88 54.5683 114.983 55.5846 115.386 56.501C115.508 56.8409 115.736 57.133 116.035 57.3354C116.57 57.6456 117.29 57.3996 117.7 56.936C118.076 56.44 118.321 55.8576 118.413 55.2422C118.506 54.6292 118.71 54.0382 119.016 53.4986C119.579 52.657 120.61 52.2755 121.594 52.0366C122.578 51.7977 123.616 51.6301 124.447 51.0417C125.1 50.5153 125.632 49.8551 126.008 49.1055C126.536 48.1855 127.028 47.1871 126.985 46.128C126.939 44.9727 126.254 43.9422 125.523 43.0436C124.097 41.2964 122.168 39.7025 119.911 39.6418C119.038 39.6784 118.167 39.7665 117.304 39.9057C116.065 39.9614 114.823 39.9137 113.592 39.7631C113.293 39.7273 112.99 39.7381 112.694 39.7952C112.347 39.9009 112.026 40.0756 111.749 40.3086C110.72 41.0753 109.785 41.961 108.964 42.9473C108.435 43.6492 107.86 44.3162 107.245 44.9442C106.842 45.3462 106.355 45.6543 105.819 45.8463C105.462 45.9462 105.106 45.8749 104.767 45.9854C103.715 46.317 103.576 47.6899 103.087 48.4957Z" fill="#965D7B"/>
<path opacity="0.1" d="M137.426 58.1911C134.573 58.7153 132.209 56.4082 130.9 54.7252C130.499 54.214 130.133 53.6754 129.806 53.1134L139.597 54.9605L139.993 55.0354C139.993 55.0354 141.794 57.3924 137.426 58.1911Z" fill="black"/>
<g opacity="0.1">
<path opacity="0.1" d="M100.374 57.2462C100.414 56.7799 100.343 56.3107 100.167 55.877C100.167 55.9126 100.135 55.9483 100.124 55.9839C99.9709 56.4617 100.178 56.9574 100.31 57.453C100.338 57.3864 100.359 57.3171 100.374 57.2462V57.2462Z" fill="black"/>
<path opacity="0.1" d="M101.222 51.4089C101.186 51.902 101.195 52.3974 101.251 52.8887C101.288 52.3957 101.278 51.9002 101.222 51.4089Z" fill="black"/>
<path opacity="0.1" d="M125.987 48.075C125.612 48.8262 125.079 49.4878 124.425 50.0148C123.602 50.6031 122.564 50.7672 121.573 51.0061C120.581 51.245 119.558 51.6265 118.995 52.468C118.69 53.0092 118.485 53.6012 118.392 54.2153C118.299 54.8305 118.054 55.4127 117.679 55.909C117.269 56.3726 116.548 56.6222 116.013 56.3084C115.714 56.1061 115.487 55.8139 115.365 55.474C114.962 54.5576 114.855 53.5449 114.694 52.5536C114.534 51.5623 114.295 50.5496 113.689 49.7545C113.082 48.9593 112.009 48.4351 111.057 48.7453C110.739 48.8686 110.448 49.0545 110.203 49.2922C109.958 49.5299 109.764 49.8144 109.631 50.1289C109.367 50.7586 109.187 51.4204 109.096 52.0972C108.651 54.5196 108.128 56.9253 107.527 59.3144C107.51 59.4129 107.47 59.5059 107.409 59.5854C107.314 59.6793 107.186 59.7341 107.053 59.7387C106.254 59.8421 105.487 59.2859 104.685 59.3429C103.697 59.4142 102.973 60.3699 102 60.5268C101.379 60.5825 100.756 60.4442 100.217 60.131C99.9691 60.0243 99.7467 59.8663 99.5644 59.6674C99.481 59.7869 99.4258 59.9237 99.4029 60.0676C99.3801 60.2116 99.3902 60.3588 99.4325 60.4982C99.5895 60.8302 99.8716 61.0866 100.217 61.2114C100.756 61.5246 101.379 61.6629 102 61.6072C102.973 61.4503 103.697 60.4947 104.685 60.4234C105.487 60.3663 106.254 60.9226 107.053 60.8192C107.186 60.8145 107.314 60.7598 107.409 60.6658C107.47 60.5864 107.51 60.4934 107.527 60.3948C108.126 58.0176 108.649 55.6119 109.096 53.1776C109.187 52.5009 109.367 51.8391 109.631 51.2093C109.764 50.8949 109.958 50.6103 110.203 50.3726C110.448 50.135 110.739 49.949 111.057 49.8258C112.009 49.5156 113.079 50.0397 113.689 50.8349C114.298 51.6301 114.53 52.6463 114.694 53.6341C114.858 54.6218 114.962 55.638 115.365 56.5545C115.487 56.8943 115.714 57.1865 116.013 57.3889C116.548 57.6991 117.269 57.453 117.679 56.9895C118.054 56.4931 118.299 55.9109 118.392 55.2957C118.485 54.6817 118.69 54.0897 118.995 53.5485C119.558 52.707 120.588 52.329 121.573 52.0865C122.557 51.844 123.594 51.6836 124.425 51.0952C125.079 50.5682 125.612 49.9066 125.987 49.1554C126.515 48.239 127.007 47.2406 126.964 46.1815C126.957 46.0454 126.943 45.9097 126.921 45.775C126.749 46.5912 126.433 47.37 125.987 48.075V48.075Z" fill="black"/>
</g>
<path opacity="0.1" d="M126.978 48.182C127.893 49.8078 128.435 51.6164 128.565 53.4772C125.388 51.6943 122.4 49.7367 120.891 49.0556C118.263 47.8682 108.436 48.0465 104.742 48.157C105.128 47.4667 105.58 46.8148 106.09 46.2101C106.934 45.2075 107.926 44.3394 109.032 43.6356C110.496 42.7063 112.134 42.0854 113.847 41.8108C115.559 41.5362 117.309 41.6137 118.991 42.0386C120.672 42.4634 122.249 43.2267 123.626 44.2818C125.002 45.3369 126.149 46.6615 126.996 48.1749L126.978 48.182Z" fill="black"/>
<path opacity="0.1" d="M138.317 56.6792C136.602 57.2069 133.803 56.1871 130.9 54.7251C130.499 54.214 130.133 53.6754 129.806 53.1134L139.597 54.9605C140.246 55.4026 140.41 56.0338 138.317 56.6792Z" fill="black"/>
<path d="M116.613 35.8193C116.613 35.8193 107.252 35.2844 104.621 40.3657L104.196 44.8693L103.483 44.7908L103.341 47.8539C103.341 47.8539 117.647 47.2299 120.902 48.699C124.158 50.1681 134.274 57.5707 138.328 56.3227C142.383 55.0746 137.972 53.9157 137.972 53.9157C137.972 53.9157 132.391 51.5516 132.391 49.6974C132.391 47.8432 131.008 38.0479 116.613 35.8193Z" fill="#444053"/>
<path opacity="0.1" d="M98.5588 202.77C98.5588 202.77 104.532 208.565 107.117 208.119C107.117 208.119 99.8069 207.495 98.5588 202.77Z" fill="black"/>
<path opacity="0.1" d="M97.3108 205.455C97.3108 205.455 97.8457 208.436 99.272 208.144C100.698 207.852 97.3108 205.455 97.3108 205.455Z" fill="black"/>
<path opacity="0.1" d="M106.671 255.277C106.671 255.277 98.1913 261.873 99.6212 262.052C101.051 262.23 106.671 255.277 106.671 255.277Z" fill="black"/>
<path d="M118.014 124.351L145.471 119.883V145.878L119.383 144.512L118.014 124.351Z" fill="#21919D"/>
<path opacity="0.05" d="M118.014 124.351L145.471 119.883V145.878L119.383 144.512L118.014 124.351Z" fill="black"/>
<path d="M145.471 119.883L178.397 122.347L176.575 144.969L145.471 145.878V119.883Z" fill="#21919D"/>
<path opacity="0.1" d="M145.471 119.883L178.397 122.347L176.575 144.969L145.471 145.878V119.883Z" fill="black"/>
<path d="M155.594 111.949L145.471 119.883L178.397 122.347L183.778 114.228L155.594 111.949Z" fill="#21919D"/>
<path d="M108.073 115.686L132.791 112.677L145.471 119.883L118.014 124.351L108.073 115.686Z" fill="#21919D"/>
<path d="M151.49 126.633V162.174L138.628 160.854L133.033 160.284L131.329 160.105L125.737 159.531L118.014 158.74V124.351L145.467 126.22L151.49 126.633Z" fill="#21919D"/>
<path d="M178.397 122.347V157.007L168.088 158.986L163.075 159.948L151.49 162.174V126.633L178.397 122.347Z" fill="#21919D"/>
<path opacity="0.05" d="M178.397 122.347V157.007L168.088 158.986L163.075 159.948L151.49 162.174V126.633L178.397 122.347Z" fill="black"/>
<path d="M108.073 131.832L118.014 124.351L151.49 126.633L146.562 134.934L108.073 131.832Z" fill="#21919D"/>
<path opacity="0.1" d="M108.073 131.832L118.014 124.351L151.49 126.633L146.562 134.934L108.073 131.832Z" fill="white"/>
<path d="M178.397 122.347L151.49 126.633L160.247 134.478L189.07 129.643L178.397 122.347Z" fill="#21919D"/>
<path opacity="0.1" d="M178.397 122.347L151.49 126.633L160.247 134.478L189.07 129.643L178.397 122.347Z" fill="white"/>
<path opacity="0.1" d="M168.089 158.986L163.075 159.949V152.542L167.771 151.359L168.089 158.986Z" fill="white"/>
<path opacity="0.1" d="M138.628 155.955V160.854L133.033 160.284V155.955H138.628Z" fill="white"/>
<path opacity="0.1" d="M131.328 157.499V160.105L125.737 159.531V157.499H131.328Z" fill="white"/>
<path opacity="0.1" d="M148.124 153.355C144.29 158.258 131.632 154.871 131.632 154.871L122.225 145.058L120.948 143.728L123.445 139.092C123.445 139.092 124.158 139.327 125.349 139.741C131.653 141.945 151.351 149.23 148.124 153.355Z" fill="black"/>
<path d="M147.767 152.642C143.934 157.545 131.275 154.158 131.275 154.158L121.868 144.344L120.592 143.014L123.088 138.379C123.088 138.379 123.801 138.614 124.992 139.028C131.296 141.232 150.994 148.516 147.767 152.642Z" fill="#EFB7B9"/>
<path opacity="0.1" d="M124.978 139.028C124.457 140.526 123.134 142.743 121.854 144.345L120.578 143.014L123.074 138.379C123.074 138.379 123.79 138.614 124.978 139.028Z" fill="black"/>
<path d="M93.8342 83.5726C93.8342 83.5726 84.474 87.1384 84.3848 97.1226C84.3635 103.557 84.7207 109.986 85.4546 116.378C85.4546 116.378 82.7802 131.265 90.3575 135.544C97.9349 139.823 104.977 143.389 104.977 143.389C104.977 143.389 117.083 145.35 118.57 145.974C120.057 146.598 125.224 138.575 124.422 137.238C123.619 135.901 112.597 132.602 111.289 130.374C109.98 128.145 106.757 126.644 106.757 126.644C106.757 126.644 103.469 124.401 103.337 122.529C103.205 120.657 104.175 119.32 104.45 118.517C104.724 117.715 105.719 109.87 105.719 109.87C105.719 109.87 111.039 82.0393 93.8342 83.5726Z" fill="#DCE6F2"/>
<path opacity="0.1" d="M98.113 116.628C98.113 116.628 85.4544 118.054 86.435 122.511C86.435 122.511 91.2453 118.015 98.113 116.628Z" fill="black"/>
<path opacity="0.1" d="M98.1131 118.41C98.1131 118.41 90.928 123.67 92.2473 124.027C93.5667 124.383 98.1131 118.41 98.1131 118.41Z" fill="black"/>
<path opacity="0.1" d="M101.323 120.55C101.323 120.55 99.2722 124.237 100.431 124.044C101.59 123.852 101.323 120.55 101.323 120.55Z" fill="black"/>
<path d="M233.122 40.576C233.122 40.576 219.571 39.7595 221.155 49.2659C221.155 49.2659 220.837 50.9454 222.36 51.7085C222.36 51.7085 222.385 50.9953 223.751 51.2413C224.237 51.3232 224.731 51.3471 225.223 51.3127C225.89 51.2682 226.524 51.0064 227.028 50.5674V50.5674C227.028 50.5674 230.839 48.9949 232.323 42.7619C232.323 42.7619 233.421 41.3997 233.393 41.0503L231.103 42.0309C231.103 42.0309 231.884 43.6818 231.267 45.0547C231.267 45.0547 231.196 42.0915 230.754 42.1592C230.665 42.1592 229.566 42.7333 229.566 42.7333C229.566 42.7333 230.911 45.6074 229.894 47.7005C229.894 47.7005 230.28 44.1561 229.146 42.9402L227.534 43.8815C227.534 43.8815 229.106 46.8518 228.04 49.2766C228.04 49.2766 228.315 45.5575 227.195 44.1097L225.733 45.2472C225.733 45.2472 227.213 48.1783 226.311 50.1894C226.311 50.1894 226.193 45.8605 225.416 45.5325C225.416 45.5325 224.139 46.6593 223.947 47.1228C223.947 47.1228 224.956 49.2623 224.328 50.3713C224.328 50.3713 223.943 47.4865 223.615 47.4723C223.615 47.4723 222.342 49.3836 222.21 50.6815C222.272 49.4715 222.649 48.2986 223.305 47.2797C222.571 47.4185 221.894 47.7694 221.358 48.2889C221.358 48.2889 221.554 46.9374 223.619 46.8197C223.619 46.8197 224.688 45.3685 224.952 45.2793C224.952 45.2793 222.898 45.1082 221.654 45.6609C221.654 45.6609 222.749 44.3879 225.33 44.9477L226.757 43.771C226.757 43.771 224.054 43.4144 222.905 43.8102C222.905 43.8102 224.225 42.6834 227.145 43.5035L228.714 42.5657C228.714 42.5657 226.411 42.0665 225.038 42.2484C225.038 42.2484 226.486 41.4675 229.174 42.3126L230.297 41.8098C230.297 41.8098 228.607 41.4782 228.115 41.4247C227.623 41.3712 227.595 41.2357 227.595 41.2357C228.664 41.0577 229.762 41.1812 230.765 41.5923C230.765 41.5923 233.171 40.7258 233.122 40.576Z" fill="#21919D"/>
<path opacity="0.1" d="M274.292 88.1225C274.292 88.1225 260.742 87.306 262.325 96.8124C262.325 96.8124 262.008 98.4919 263.531 99.255C263.531 99.255 263.556 98.5418 264.925 98.7879C265.411 98.8697 265.905 98.8936 266.397 98.8592C267.056 98.8114 267.682 98.5511 268.18 98.1175V98.1175C268.18 98.1175 271.996 96.5414 273.479 90.3084C273.479 90.3084 274.574 88.9498 274.531 88.6003L272.242 89.5774C272.242 89.5774 273.023 91.2283 272.409 92.6012C272.409 92.6012 272.335 89.638 271.896 89.7058C271.807 89.7058 270.705 90.2798 270.705 90.2798C270.705 90.2798 272.053 93.1574 271.037 95.247C271.037 95.247 271.422 91.7026 270.284 90.4867L268.69 91.4173C268.69 91.4173 270.263 94.3877 269.197 96.8124C269.197 96.8124 269.471 93.0933 268.352 91.6456L266.893 92.7866C266.893 92.7866 268.369 95.7141 267.471 97.7252C267.471 97.7252 267.353 93.3964 266.576 93.0683C266.576 93.0683 265.299 94.1951 265.103 94.6587C265.103 94.6587 266.116 96.7981 265.488 97.9071C265.488 97.9071 265.103 95.0224 264.775 95.0081C264.775 95.0081 263.502 96.9194 263.37 98.2173C263.434 97.0071 263.812 95.8345 264.468 94.8155C263.734 94.9547 263.056 95.3054 262.518 95.8247C262.518 95.8247 262.718 94.4732 264.782 94.3556C264.782 94.3556 265.834 92.9043 266.116 92.8151C266.116 92.8151 264.062 92.644 262.817 93.1967C262.817 93.1967 263.912 91.9237 266.49 92.5013L267.917 91.3246C267.917 91.3246 265.21 90.968 264.065 91.3638C264.065 91.3638 265.385 90.237 268.305 91.0572L269.874 90.1194C269.874 90.1194 267.567 89.6237 266.194 89.802C266.194 89.802 267.646 89.0211 270.334 89.8662L271.457 89.3634C271.457 89.3634 269.767 89.0318 269.272 88.9783C268.776 88.9248 268.751 88.7893 268.751 88.7893C269.821 88.6113 270.92 88.7347 271.924 89.1459C271.924 89.1459 274.335 88.2723 274.292 88.1225Z" fill="#21919D"/>
<path opacity="0.1" d="M191.976 79.6823C191.976 79.6823 195.096 66.4567 185.454 66.4104C185.454 66.4104 183.853 65.8113 182.844 67.1806C182.844 67.1806 183.532 67.3268 183.065 68.6319C182.903 69.0934 182.796 69.572 182.744 70.0582C182.675 70.721 182.824 71.3883 183.168 71.9588V71.9588C183.168 71.9588 184.07 75.9881 189.943 78.5127C189.943 78.5127 191.099 79.8249 191.448 79.8392L190.878 77.418C190.878 77.418 189.116 77.9065 187.868 77.0614C187.868 77.0614 190.803 77.4929 190.806 77.0614C190.806 76.9723 190.45 75.792 190.45 75.792C190.45 75.792 187.387 76.6264 185.497 75.2678C185.497 75.2678 188.924 76.252 190.318 75.3427L189.676 73.5883C189.676 73.5883 186.467 74.6331 184.27 73.1676C184.27 73.1676 187.889 74.0733 189.508 73.2175L188.635 71.5844C188.635 71.5844 185.497 72.54 183.668 71.3098C183.668 71.3098 187.946 71.9302 188.41 71.2242C188.41 71.2242 187.519 69.7729 187.094 69.5019C187.094 69.5019 184.826 70.1366 183.828 69.3272C183.828 69.3272 186.734 69.4377 186.802 69.1311C186.802 69.1311 185.137 67.5514 183.867 67.1948C185.05 67.4642 186.143 68.0369 187.037 68.8565C187.024 68.1092 186.794 67.3819 186.374 66.7634C186.374 66.7634 187.672 67.1913 187.444 69.2594C187.444 69.2594 188.692 70.5431 188.731 70.8355C188.731 70.8355 189.248 68.8422 188.916 67.5193C188.916 67.5193 189.986 68.8173 188.977 71.2599L189.89 72.8823C189.89 72.8823 190.717 70.2793 190.507 69.0812C190.507 69.0812 191.395 70.5717 190.086 73.3102L190.746 75.0182C190.746 75.0182 191.626 72.8288 191.683 71.4524C191.683 71.4524 192.208 73.0142 190.913 75.521L191.22 76.712C191.22 76.712 191.833 75.1038 191.969 74.626C192.104 74.1482 192.243 74.1446 192.243 74.1446C192.238 75.2294 191.93 76.2913 191.355 77.2112C191.355 77.2112 191.823 79.7001 191.976 79.6823Z" fill="#21919D"/>
<path opacity="0.1" d="M162.301 84.1895C162.301 84.1895 151.418 76.0487 147.528 84.867C147.528 84.867 146.341 86.0972 147.193 87.5698C147.193 87.5698 147.599 86.9957 148.619 87.9478C148.98 88.2839 149.38 88.5759 149.81 88.8179C150.392 89.1421 151.065 89.2674 151.725 89.1744V89.1744C151.725 89.1744 155.776 89.9554 160.44 85.5659C160.44 85.5659 162.105 85.031 162.262 84.7172L159.805 84.2857C159.805 84.2857 159.548 86.0936 158.282 86.903C158.282 86.903 159.848 84.3856 159.441 84.2037C159.359 84.1645 158.133 84.0254 158.133 84.0254C158.133 84.0254 157.676 87.1705 155.679 88.3579C155.679 88.3579 157.951 85.6086 157.669 83.9684L155.804 83.8685C155.804 83.8685 155.487 87.2168 153.262 88.6574C153.262 88.6574 155.533 85.7014 155.401 83.8757L153.554 84.0254C153.554 84.0254 153.18 87.281 151.322 88.4649C151.322 88.4649 153.601 84.7849 153.133 84.086C153.133 84.086 151.447 84.325 151.03 84.6031C151.03 84.6031 150.705 86.9351 149.564 87.527C149.564 87.527 150.83 84.9062 150.573 84.7243C150.573 84.7243 148.459 85.6193 147.628 86.6392C148.347 85.6627 149.308 84.8908 150.416 84.3998C149.727 84.1132 148.968 84.0338 148.234 84.1716C148.234 84.1716 149.14 83.1518 150.93 84.1895C150.93 84.1895 152.606 83.5583 152.891 83.6367C152.891 83.6367 151.268 82.3638 149.924 82.1427C149.924 82.1427 151.543 81.6791 153.379 83.569L155.23 83.38C155.23 83.38 153.173 81.5971 151.992 81.2976C151.992 81.2976 153.715 81.0801 155.701 83.3693L157.526 83.4513C157.526 83.4513 155.876 81.7683 154.631 81.1621C154.631 81.1621 156.268 81.3047 158.051 83.4906L159.267 83.6867C159.267 83.6867 158.036 82.4814 157.651 82.1676C157.266 81.8538 157.32 81.7219 157.32 81.7219C158.312 82.1612 159.162 82.8673 159.777 83.7616C159.777 83.7616 162.255 84.3357 162.301 84.1895Z" fill="#21919D"/>
<path opacity="0.1" d="M198.533 8.55517C198.533 8.55517 187.65 0.410873 183.76 9.23267C183.76 9.23267 182.573 10.4629 183.425 11.9356C183.425 11.9356 183.831 11.3615 184.851 12.3135C185.214 12.6478 185.615 12.9386 186.046 13.18C186.628 13.5046 187.301 13.6298 187.961 13.5366V13.5366C187.961 13.5366 192.011 14.3175 196.675 9.92444C196.675 9.92444 198.341 9.39314 198.494 9.07578L196.037 8.65145C196.037 8.65145 195.784 10.4593 194.515 11.2687C194.515 11.2687 196.084 8.75129 195.677 8.56944C195.595 8.53021 194.368 8.39115 194.368 8.39115C194.368 8.39115 193.898 11.5433 191.901 12.7236C191.901 12.7236 194.169 9.97436 193.891 8.33409L192.026 8.23425C192.026 8.23425 191.705 11.5825 189.483 13.0196C189.483 13.0196 191.755 10.0635 191.623 8.23782L189.779 8.38758C189.779 8.38758 189.401 11.6467 187.543 12.8306C187.543 12.8306 189.826 9.15066 189.358 8.45176C189.358 8.45176 187.672 8.69067 187.255 8.9688C187.255 8.9688 186.93 11.3008 185.789 11.8928C185.789 11.8928 187.055 9.2719 186.798 9.08648C186.798 9.08648 184.684 9.98506 183.853 11.0049C184.57 10.0274 185.532 9.25525 186.641 8.76555C185.951 8.47674 185.191 8.39738 184.455 8.53734C184.455 8.53734 185.365 7.51752 187.155 8.55517C187.155 8.55517 188.831 7.92046 189.116 8.00247C189.116 8.00247 187.494 6.72948 186.149 6.50484C186.149 6.50484 187.765 6.04485 189.601 7.93116L191.452 7.74217C191.452 7.74217 189.398 5.95927 188.214 5.65617C188.214 5.65617 189.936 5.44222 191.926 7.73147L193.752 7.80992C193.752 7.80992 192.101 6.12686 190.853 5.52424C190.853 5.52424 192.493 5.66687 194.276 7.85271L195.488 8.04883C195.488 8.04883 194.254 6.85785 193.869 6.55119C193.484 6.24453 193.538 6.10903 193.538 6.10903C194.53 6.54783 195.381 7.25404 195.994 8.14867C195.994 8.14867 198.473 8.69067 198.533 8.55517Z" fill="#21919D"/>
<path opacity="0.1" d="M240.118 18.871C240.118 18.871 235.767 5.99486 227.562 11.0547C227.562 11.0547 225.886 11.4113 225.755 13.0908C225.755 13.0908 226.414 12.8483 226.707 14.2033C226.815 14.6853 226.979 15.1532 227.195 15.5976C227.49 16.1956 227.97 16.6823 228.564 16.9847V16.9847C228.564 16.9847 231.46 19.9265 237.793 18.953C237.793 18.953 239.465 19.4593 239.772 19.2846L237.989 17.5338C237.989 17.5338 236.755 18.8781 235.25 18.8246C235.25 18.8246 237.971 17.6408 237.746 17.2592C237.7 17.1844 236.769 16.3749 236.769 16.3749C236.769 16.3749 234.608 18.7034 232.291 18.5501C232.291 18.5501 235.717 17.573 236.416 16.054L234.94 14.9165C234.94 14.9165 232.779 17.491 230.13 17.4126C230.13 17.4126 233.696 16.2679 234.598 14.6847L232.993 13.7612C232.993 13.7612 230.854 16.2323 228.636 16.1538C228.636 16.1538 232.601 14.4173 232.612 13.5758C232.612 13.5758 231.089 12.8162 230.586 12.8091C230.586 12.8091 228.996 14.5457 227.734 14.3888C227.734 14.3888 230.258 12.9446 230.151 12.6487C230.151 12.6487 227.905 12.1887 226.639 12.5595C227.784 12.1609 229.013 12.0687 230.205 12.2921C229.798 11.6641 229.217 11.1685 228.532 10.8658C228.532 10.8658 229.859 10.5413 230.747 12.4097C230.747 12.4097 232.487 12.8412 232.672 13.0659C232.672 13.0659 232.059 11.1011 231.078 10.1526C231.078 10.1526 232.672 10.691 233.107 13.2976L234.74 14.1891C234.74 14.1891 234.066 11.5468 233.253 10.6233C233.253 10.6233 234.797 11.422 235.133 14.4351L236.595 15.537C236.595 15.537 236.188 13.2121 235.503 12.0068C235.503 12.0068 236.773 13.0552 237.001 15.8686L237.889 16.7172C237.889 16.7172 237.561 15.027 237.425 14.5492C237.29 14.0714 237.4 14.0393 237.4 14.0393C237.967 14.9643 238.267 16.0282 238.267 17.113C238.267 17.113 239.993 18.9637 240.118 18.871Z" fill="#21919D"/>
<path opacity="0.1" d="M211.727 19.5058C211.727 19.5058 198.212 18.001 199.328 27.5895C199.328 27.5895 198.926 29.2511 200.398 30.0855C200.398 30.0855 200.459 29.3724 201.825 29.6933C202.307 29.7971 202.8 29.8462 203.294 29.8395C203.96 29.8275 204.605 29.5984 205.13 29.187V29.187C205.13 29.187 209.02 27.807 210.835 21.656C210.835 21.656 211.998 20.3545 211.973 20.0014L209.637 20.8644C209.637 20.8644 210.35 22.551 209.637 23.8917C209.637 23.8917 209.712 20.9286 209.281 20.9749C209.192 20.9749 208.065 21.4884 208.065 21.4884C208.065 21.4884 209.263 24.4302 208.143 26.4805C208.143 26.4805 208.707 22.9575 207.633 21.6881L205.975 22.5439C205.975 22.5439 207.402 25.5926 206.207 27.9603C206.207 27.9603 206.671 24.259 205.626 22.7578L204.11 23.8276C204.11 23.8276 205.437 26.8264 204.435 28.7912C204.435 28.7912 204.538 24.4623 203.779 24.095C203.779 24.095 202.445 25.1647 202.227 25.6069C202.227 25.6069 203.13 27.782 202.449 28.8696C202.449 28.8696 202.21 25.9706 201.896 25.9421C201.896 25.9421 200.527 27.7856 200.327 29.0871C200.451 27.8805 200.888 26.7273 201.596 25.7424C200.856 25.8446 200.162 26.1607 199.599 26.6517C199.599 26.6517 199.863 25.3145 201.932 25.3002C201.932 25.3002 203.055 23.906 203.358 23.8311C203.358 23.8311 201.315 23.5566 200.042 24.0451C200.042 24.0451 201.201 22.8256 203.747 23.5352L205.248 22.4333C205.248 22.4333 202.534 21.8842 201.386 22.2408C201.386 22.2408 202.762 21.171 205.636 22.1516L207.252 21.2923C207.252 21.2923 204.973 20.6789 203.593 20.7895C203.593 20.7895 205.08 20.0763 207.722 21.0641L208.871 20.6183C208.871 20.6183 207.198 20.2011 206.706 20.1227C206.214 20.0442 206.196 19.9087 206.196 19.9087C207.274 19.785 208.365 19.9628 209.348 20.4222C209.348 20.4222 211.752 19.6556 211.727 19.5058Z" fill="#21919D"/>
<path opacity="0.1" d="M329.969 124.401C329.969 124.401 316.462 122.896 317.578 132.474C317.578 132.474 317.175 134.136 318.647 134.97C318.647 134.97 318.708 134.257 320.074 134.574C320.556 134.682 321.049 134.731 321.543 134.72C322.21 134.71 322.855 134.481 323.379 134.068V134.068C323.379 134.068 327.27 132.688 329.067 126.54C329.067 126.54 330.229 125.235 330.204 124.886L327.869 125.745C327.869 125.745 328.582 127.435 327.869 128.776C327.869 128.776 327.943 125.809 327.512 125.859C327.423 125.859 326.296 126.369 326.296 126.369C326.296 126.369 327.494 129.311 326.375 131.361C326.375 131.361 326.938 127.842 325.865 126.569L324.207 127.428C324.207 127.428 325.633 130.477 324.442 132.845C324.442 132.845 324.902 129.143 323.857 127.639L322.342 128.708C322.342 128.708 323.668 131.707 322.666 133.668C322.666 133.668 322.769 129.34 322.01 128.976C322.01 128.976 320.68 130.046 320.459 130.488C320.459 130.488 321.365 132.663 320.68 133.751C320.68 133.751 320.441 130.852 320.127 130.823C320.127 130.823 318.758 132.667 318.558 133.968C318.682 132.761 319.12 131.608 319.828 130.623C319.087 130.724 318.393 131.04 317.831 131.533C317.831 131.533 318.095 130.192 320.163 130.178C320.163 130.178 321.29 128.783 321.589 128.712C321.589 128.712 319.546 128.434 318.273 128.922C318.273 128.922 319.432 127.706 321.981 128.416L323.479 127.314C323.479 127.314 320.798 126.808 319.632 127.157C319.632 127.157 321.008 126.088 323.882 127.065L325.497 126.209C325.497 126.209 323.219 125.596 321.839 125.706C321.839 125.706 323.326 124.993 325.968 125.981L327.116 125.531C327.116 125.531 325.444 125.114 324.952 125.039C324.46 124.964 324.442 124.825 324.442 124.825C325.52 124.699 326.611 124.876 327.594 125.335C327.594 125.335 330.004 124.554 329.969 124.401Z" fill="#21919D"/>
<path opacity="0.1" d="M350.619 137.017C350.619 137.017 337.111 135.516 338.227 145.09C338.227 145.09 337.828 146.751 339.297 147.586C339.297 147.586 339.358 146.873 340.723 147.194C341.205 147.298 341.697 147.346 342.189 147.336C342.853 147.323 343.494 147.095 344.018 146.687V146.687C344.018 146.687 347.905 145.307 349.702 139.156C349.702 139.156 350.868 137.855 350.84 137.502L348.504 138.361C348.504 138.361 349.217 140.051 348.504 141.392C348.504 141.392 348.579 138.429 348.147 138.475C348.058 138.475 346.931 138.985 346.931 138.985C346.931 138.985 348.13 141.927 347.01 143.977C347.01 143.977 347.573 140.458 346.5 139.188L344.842 140.044C344.842 140.044 346.268 143.093 345.077 145.461C345.077 145.461 345.537 141.759 344.492 140.258L342.977 141.328C342.977 141.328 344.303 144.327 343.305 146.291C343.305 146.291 343.405 141.959 342.645 141.595C342.645 141.595 341.315 142.665 341.094 143.107C341.094 143.107 342 145.282 341.315 146.37C341.315 146.37 341.076 143.471 340.763 143.442C340.763 143.442 339.393 145.286 339.197 146.587C339.321 145.381 339.757 144.228 340.463 143.243C339.723 143.345 339.029 143.661 338.466 144.152C338.466 144.152 338.734 142.811 340.802 142.801C340.802 142.801 341.925 141.406 342.228 141.331C342.228 141.331 340.185 141.057 338.912 141.545C338.912 141.545 340.071 140.326 342.62 141.035L344.118 139.934C344.118 139.934 341.437 139.427 340.271 139.777C340.271 139.777 341.647 138.707 344.521 139.688L346.136 138.828C346.136 138.828 343.858 138.215 342.478 138.325C342.478 138.325 343.965 137.612 346.607 138.6L347.755 138.154C347.755 138.154 346.083 137.737 345.594 137.659C345.106 137.58 345.081 137.445 345.081 137.445C346.159 137.321 347.25 137.499 348.233 137.958C348.233 137.958 350.654 137.17 350.619 137.017Z" fill="#21919D"/>
<path opacity="0.1" d="M304.773 30.7523C304.773 30.7523 293.89 22.6116 290 31.4298C290 31.4298 288.812 32.66 289.665 34.1327C289.665 34.1327 290.071 33.5586 291.091 34.5107C291.452 34.8467 291.852 35.1388 292.282 35.3807C292.864 35.7048 293.537 35.83 294.197 35.7373V35.7373C294.197 35.7373 298.247 36.5182 302.915 32.1287C302.915 32.1287 304.577 31.5939 304.734 31.2801L302.284 30.8379C302.284 30.8379 302.027 32.6458 300.761 33.4552C300.761 33.4552 302.327 30.9377 301.92 30.7559C301.838 30.7167 300.615 30.5776 300.615 30.5776C300.615 30.5776 300.155 33.7226 298.158 34.91C298.158 34.91 300.43 32.1608 300.148 30.5205L298.283 30.4207C298.283 30.4207 297.966 33.769 295.741 35.2096C295.741 35.2096 298.016 32.2535 297.88 30.4278L296.033 30.5776C296.033 30.5776 295.677 33.8332 293.801 35.017C293.801 35.017 296.083 31.3371 295.612 30.6382C295.612 30.6382 293.926 30.8771 293.509 31.1553C293.509 31.1553 293.188 33.4873 292.047 34.0792C292.047 34.0792 293.309 31.4583 293.052 31.2765C293.052 31.2765 290.938 32.1715 290.107 33.1913C290.825 32.2149 291.787 31.443 292.895 30.952C292.205 30.6653 291.447 30.586 290.713 30.7238C290.713 30.7238 291.622 29.704 293.412 30.7416C293.412 30.7416 295.085 30.1105 295.37 30.1889C295.37 30.1889 293.747 28.9159 292.403 28.6949C292.403 28.6949 294.022 28.2313 295.858 30.1212L297.709 29.9322C297.709 29.9322 295.655 28.1493 294.471 27.8498C294.471 27.8498 296.194 27.6322 298.18 29.9215L300.009 30.0035C300.009 30.0035 298.354 28.3204 297.11 27.7143C297.11 27.7143 298.75 27.8569 300.53 30.0427L301.746 30.2388C301.746 30.2388 300.515 29.0336 300.13 28.7198C299.745 28.406 299.802 28.3026 299.802 28.3026C300.793 28.7426 301.642 29.4486 302.255 30.3423C302.255 30.3423 304.727 30.8985 304.773 30.7523Z" fill="#21919D"/>
<path opacity="0.1" d="M313.181 89.5238C313.181 89.5238 309.43 76.4623 300.993 81.1513C300.993 81.1513 299.303 81.4116 299.092 83.1018C299.092 83.1018 299.763 82.8915 299.995 84.2572C300.081 84.7478 300.224 85.2266 300.422 85.6835C300.687 86.2979 301.145 86.8089 301.728 87.1383V87.1383C301.728 87.1383 304.487 90.2049 310.856 89.5203C310.856 89.5203 312.503 90.0979 312.817 89.941L311.131 88.1082C311.131 88.1082 309.836 89.399 308.339 89.2778C308.339 89.2778 311.106 88.2081 310.892 87.8265C310.849 87.7481 309.957 86.8958 309.957 86.8958C309.957 86.8958 307.697 89.128 305.386 88.8677C305.386 88.8677 308.856 88.0476 309.619 86.5714L308.192 85.3661C308.192 85.3661 305.917 87.8408 303.275 87.6482C303.275 87.6482 306.869 86.6605 307.861 85.1236L306.299 84.1288C306.299 84.1288 304.035 86.5 301.838 86.3217C301.838 86.3217 305.878 84.7635 305.928 83.9255C305.928 83.9255 304.438 83.0983 303.935 83.0697C303.935 83.0697 302.27 84.7314 301.004 84.5175C301.004 84.5175 303.592 83.1874 303.5 82.8879C303.5 82.8879 301.275 82.3281 299.995 82.6383C301.154 82.2945 302.383 82.2588 303.56 82.5349C303.183 81.8897 302.625 81.369 301.956 81.0372C301.956 81.0372 303.297 80.7698 304.095 82.6775C304.095 82.6775 305.81 83.1838 305.989 83.4192C305.989 83.4192 305.465 81.4259 304.527 80.4382C304.527 80.4382 306.096 81.0444 306.413 83.6688L308.003 84.6351C308.003 84.6351 307.447 81.9608 306.677 81.0194C306.677 81.0194 308.182 81.8859 308.385 84.9097L309.811 86.0757C309.811 86.0757 309.508 83.7365 308.881 82.5099C308.881 82.5099 310.104 83.6153 310.203 86.4323L311.052 87.3237C311.052 87.3237 310.803 85.6193 310.696 85.1343C310.589 84.6494 310.696 84.5816 310.696 84.5816C311.223 85.5301 311.476 86.6068 311.427 87.691C311.427 87.691 313.053 89.6094 313.181 89.5238Z" fill="#21919D"/>
<path opacity="0.1" d="M229.591 118.956C229.591 118.956 222.307 107.481 215.542 114.349C215.542 114.349 213.995 115.062 214.266 116.756C214.266 116.756 214.854 116.364 215.46 117.612C215.678 118.054 215.949 118.468 216.266 118.845C216.691 119.36 217.274 119.721 217.924 119.872V119.872C217.924 119.872 221.436 122.04 227.356 119.587C227.356 119.587 229.099 119.68 229.356 119.441L227.217 118.157C227.217 118.157 226.336 119.762 224.863 120.065C224.863 120.065 227.224 118.282 226.906 117.954C226.846 117.89 225.748 117.326 225.748 117.326C225.748 117.326 224.204 120.101 221.914 120.504C221.914 120.504 225.013 118.739 225.334 117.105L223.626 116.353C223.626 116.353 222.139 119.366 219.55 119.919C219.55 119.919 222.724 117.961 223.241 116.207L221.458 115.693C221.458 115.693 219.953 118.607 217.796 119.052C217.796 119.052 221.233 116.421 221.044 115.601C221.044 115.601 219.383 115.226 218.905 115.34C218.905 115.34 217.774 117.405 216.498 117.555C216.498 117.555 218.609 115.551 218.434 115.287C218.434 115.287 216.141 115.376 215 116.036C216.018 115.376 217.191 114.995 218.402 114.93C217.86 114.417 217.179 114.074 216.444 113.943C216.444 113.943 217.653 113.311 218.94 114.916C218.94 114.916 220.723 114.916 220.969 115.094C220.969 115.094 219.9 113.311 218.726 112.645C218.726 112.645 220.402 112.787 221.444 115.216L223.244 115.693C223.244 115.693 221.957 113.286 220.955 112.598C220.955 112.598 222.642 113.005 223.686 115.854L225.37 116.567C225.37 116.567 224.421 114.41 223.469 113.401C223.469 113.401 224.952 114.114 225.84 116.792L226.91 117.408C226.91 117.408 226.197 115.843 225.944 115.412C225.69 114.98 225.79 114.88 225.79 114.88C226.562 115.642 227.106 116.604 227.363 117.658C227.363 117.658 229.495 119.077 229.591 118.956Z" fill="#21919D"/>
<path d="M277.47 60.327C277.47 60.327 270.541 48.6348 263.563 55.2885C263.563 55.2885 261.994 55.9661 262.215 57.6562C262.215 57.6562 262.811 57.2783 263.381 58.5441C263.585 58.9941 263.843 59.4179 264.148 59.8064C264.557 60.3323 265.129 60.7083 265.774 60.8762V60.8762C265.774 60.8762 269.215 63.1512 275.209 60.8762C275.209 60.8762 276.949 61.0224 277.213 60.7906L275.12 59.4427C275.12 59.4427 274.193 61.0152 272.709 61.2755C272.709 61.2755 275.123 59.5533 274.82 59.2288C274.756 59.161 273.679 58.562 273.679 58.562C273.679 58.562 272.05 61.2898 269.757 61.6214C269.757 61.6214 272.909 59.9526 273.276 58.3338L271.593 57.5421C271.593 57.5421 270.014 60.5125 267.407 60.9867C267.407 60.9867 270.641 59.1289 271.212 57.3924L269.45 56.8218C269.45 56.8218 267.853 59.6745 265.685 60.0667C265.685 60.0667 269.2 57.5421 269.036 56.7184C269.036 56.7184 267.389 56.2905 266.897 56.3904C266.897 56.3904 265.702 58.4193 264.422 58.5299C264.422 58.5299 266.594 56.5972 266.43 56.3262C266.43 56.3262 264.133 56.344 262.975 56.968C264.013 56.3419 265.196 55.9977 266.408 55.9696C265.881 55.4396 265.211 55.0752 264.479 54.9213C264.479 54.9213 265.71 54.3258 266.975 55.9696C266.975 55.9696 268.758 56.0302 268.997 56.2121C268.997 56.2121 267.988 54.4292 266.833 53.6946C266.833 53.6946 268.502 53.8872 269.468 56.3476L271.251 56.8825C271.251 56.8825 270.042 54.4363 269.058 53.716C269.058 53.716 270.734 54.176 271.689 57.0536L273.348 57.8274C273.348 57.8274 272.467 55.6416 271.565 54.6182C271.565 54.6182 273.023 55.3777 273.832 58.0806L274.877 58.7296C274.877 58.7296 274.207 57.1428 273.972 56.7042C273.736 56.2656 273.836 56.1693 273.836 56.1693C274.584 56.9549 275.098 57.9326 275.323 58.9934C275.323 58.9934 277.366 60.4447 277.47 60.327Z" fill="#21919D"/>
<path d="M233.635 84.9133C233.635 84.9133 233.992 71.3276 224.553 73.2424C224.553 73.2424 222.863 72.9821 222.15 74.5297C222.15 74.5297 222.863 74.5297 222.663 75.9025C222.598 76.392 222.591 76.8876 222.642 77.3788C222.706 78.045 222.988 78.6716 223.444 79.1617C223.444 79.1617 225.145 82.92 231.424 84.1966C231.424 84.1966 232.818 85.2485 233.168 85.1914L232.098 82.9379C232.098 82.9379 230.476 83.7722 229.082 83.2053C229.082 83.2053 232.041 83.0306 231.959 82.5955C231.959 82.5064 231.346 81.4224 231.346 81.4224C231.346 81.4224 228.515 82.8665 226.393 81.918C226.393 81.918 229.959 82.1855 231.125 81.0123L230.13 79.4327C230.13 79.4327 227.213 81.1015 224.753 80.1173C224.753 80.1173 228.479 80.2671 229.891 79.101L228.704 77.6747C228.704 77.6747 225.826 79.2508 223.786 78.4164C223.786 78.4164 228.108 78.1561 228.422 77.3681C228.422 77.3681 227.252 76.1307 226.782 75.9417C226.782 75.9417 224.692 77.0115 223.551 76.4338C223.551 76.4338 226.404 75.956 226.421 75.6387C226.421 75.6387 224.471 74.4298 223.155 74.3407C224.368 74.3624 225.555 74.7017 226.596 75.3249C226.434 74.596 226.062 73.9305 225.526 73.41C225.526 73.41 226.885 73.5634 227.07 75.6208C227.07 75.6208 228.557 76.6264 228.654 76.9045C228.654 76.9045 228.757 74.847 228.162 73.6204C228.162 73.6204 229.474 74.6723 228.982 77.2682L230.205 78.6732C230.205 78.6732 230.483 75.956 230.037 74.8257C230.037 74.8257 231.207 76.1058 230.486 79.0511L231.474 80.588C231.474 80.588 231.895 78.2667 231.67 76.901C231.67 76.901 232.498 78.3273 231.742 81.0408L232.284 82.1462C232.284 82.1462 232.558 80.4454 232.594 79.9497C232.63 79.4541 232.765 79.422 232.765 79.422C232.98 80.4857 232.894 81.5881 232.519 82.6062C232.519 82.6062 233.478 84.9597 233.635 84.9133Z" fill="#21919D"/>
<path opacity="0.1" d="M249.239 257.541C254.542 257.541 258.842 256.815 258.842 255.919C258.842 255.023 254.542 254.296 249.239 254.296C243.936 254.296 239.636 255.023 239.636 255.919C239.636 256.815 243.936 257.541 249.239 257.541Z" fill="#21919D"/>
<path opacity="0.1" d="M214.234 282.174C219.537 282.174 223.836 281.447 223.836 280.551C223.836 279.655 219.537 278.929 214.234 278.929C208.93 278.929 204.631 279.655 204.631 280.551C204.631 281.447 208.93 282.174 214.234 282.174Z" fill="#21919D"/>
<path opacity="0.1" d="M33.2119 269.554C38.5153 269.554 42.8146 268.828 42.8146 267.932C42.8146 267.036 38.5153 266.309 33.2119 266.309C27.9085 266.309 23.6092 267.036 23.6092 267.932C23.6092 268.828 27.9085 269.554 33.2119 269.554Z" fill="#21919D"/>
<path opacity="0.1" d="M287.069 280.551C292.372 280.551 296.671 279.825 296.671 278.929C296.671 278.033 292.372 277.306 287.069 277.306C281.765 277.306 277.466 278.033 277.466 278.929C277.466 279.825 281.765 280.551 287.069 280.551Z" fill="#21919D"/>
<path d="M297.067 260.768C304.986 260.768 311.405 259.682 311.405 258.343C311.405 257.004 304.986 255.919 297.067 255.919C289.148 255.919 282.729 257.004 282.729 258.343C282.729 259.682 289.148 260.768 297.067 260.768Z" fill="#21919D"/>
<path d="M303.011 254.375C303.666 253.843 304.143 253.124 304.377 252.313C304.555 251.493 304.206 250.513 303.425 250.213C302.548 249.878 301.61 250.484 300.897 251.098C300.184 251.711 299.374 252.413 298.444 252.285C298.921 251.851 299.279 251.301 299.481 250.688C299.684 250.075 299.724 249.42 299.599 248.787C299.559 248.525 299.448 248.278 299.278 248.074C298.79 247.553 297.909 247.778 297.324 248.188C295.47 249.493 294.953 252.01 294.942 254.278C294.757 253.462 294.914 252.609 294.91 251.782C294.906 250.955 294.675 249.999 293.965 249.564C293.529 249.321 293.037 249.198 292.539 249.208C291.704 249.179 290.774 249.261 290.207 249.871C289.493 250.627 289.682 251.9 290.296 252.724C290.909 253.547 291.847 254.079 292.71 254.656C293.4 255.069 293.99 255.63 294.436 256.3C294.486 256.393 294.528 256.491 294.56 256.592H299.788C300.958 256.003 302.043 255.257 303.011 254.375V254.375Z" fill="#21919D"/>
<path d="M26.7651 260.39C26.7651 260.39 32.2386 260.222 33.8967 259.046C35.5548 257.869 42.3227 256.468 42.7327 258.354C43.1428 260.24 50.9626 267.728 44.7795 267.778C38.5964 267.828 30.4129 266.816 28.7655 265.81C27.1181 264.805 26.7651 260.39 26.7651 260.39Z" fill="#A8A8A8"/>
<path opacity="0.2" d="M44.8829 267.122C38.6998 267.172 30.5163 266.16 28.8689 265.154C27.6137 264.391 27.1145 261.649 26.9469 260.383H26.7651C26.7651 260.383 27.1217 264.801 28.7584 265.803C30.3951 266.805 38.5893 267.821 44.7724 267.771C46.5553 267.771 47.1722 267.122 47.1401 266.181C46.8905 266.755 46.2094 267.112 44.8829 267.122Z" fill="black"/>
</g>
<defs>
<linearGradient id="paint0_linear" x1="79.5137" y1="155.049" x2="190.813" y2="155.049" gradientUnits="userSpaceOnUse">
<stop stop-color="#808080" stop-opacity="0.25"/>
<stop offset="0.54" stop-color="#808080" stop-opacity="0.12"/>
<stop offset="1" stop-color="#808080" stop-opacity="0.1"/>
</linearGradient>
<clipPath id="clip0">
<rect width="359.982" height="281.674" fill="white" transform="translate(0 0.5)"/>
</clipPath>
</defs>
</svg>
